# xmcd CD database file
#
# Track frame offsets:
#	150
#	14045
#	24542
#	35157
#	48207
#	55900
#	66882
#	76125
#	85367
#	96457
#	106554
#	117632
#	124517
#	128372
#	139217
#	148737
#	160942
#	164247
#
# Disc length: 2270 seconds
#
# Revision: 0
# Processed by: cddbd v1.5.1PL0 Copyright (c) Steve Scherf et al.
# Submitted via: CDex 1.51
#
DISCID=fe08dc12
DTITLE=Various Artist - Burlesque
DYEAR=1900
DGENRE=Jazz
TTITLE0=Alexander_Sandy_Courage-Hot_Rod_Rumble
TTITLE1=Criterions-Island_fever
TTITLE2=Johny_and_the_Hurricanes-Crossfire
TTITLE3=Oscar_Brown_Jr-But_I_was_cool
TTITLE4=JM_Van_Eaton-Beatnik
TTITLE5=Serge_Gainsbourg-Pouvre_Lola
TTITLE6=Edd_Byrnes-Kookies_Mad_Pad
TTITLE7=McFadden_and_Dor-Beat_Generation
TTITLE8=Brian_Auger-Tiger
TTITLE9=Lambert_Hendriks_and_Ross-Twisted
TTITLE10=John_Barry-Death_of_Fiona
TTITLE11=Armando_Trovajoli_Ping_Pong
TTITLE12=Earle_Hagen-The_Andy_Griffith_Show
TTITLE13=Lenny_Bruce-Psycopathia_Sexuales
TTITLE14=Nelson_Riddle-Route66_theme
TTITLE15=Wee_Willie_Harris-Got_a_Match
TTITLE16=Jack_Marshall-The_Munster
TTITLE17=Piero_Piccioni-La_Vita_Agra
EXTD=
EXTT0=
EXTT1=
EXTT2=
EXTT3=
EXTT4=
EXTT5=
EXTT6=
EXTT7=
EXTT8=
EXTT9=
EXTT10=
EXTT11=
EXTT12=
EXTT13=
EXTT14=
EXTT15=
EXTT16=
EXTT17=
PLAYORDER=
